# xmcd
#
# Track frame offsets: 
#        150
#        27256
#        52303
#        75838
#        91386
#        108241
#        120488
#        141761
#        166414
#        191755
#        210281
#        227688
#        242751
#
# Disc length: 3513 seconds
#
# Revision: 0
# Processed by: cddbd v1.5.2PL0 Copyright (c) Steve Scherf et al.
# Submitted via: ExactAudioCopy v0.99pb5
#
DISCID=a30db70d
DTITLE=Big George Brock - Lay These Blues On Me
DYEAR=2013
DGENRE=Blues
TTITLE0=What Is That He Got
TTITLE1=The Howling Wolf
TTITLE2=Oh Baby (You Don't Have To Go)
TTITLE3=I'm 80 Years Old (I'm Worried About It)
TTITLE4=I Got My Mojo Working
TTITLE5=Sugar Sweet
TTITLE6=You Make One Step and I'll Make Two
TTITLE7=I've Been Down Hearted
TTITLE8=I Sing These Blues Like I Wanna
TTITLE9=Going Down South
TTITLE10=Lonesome In My Bedroom
TTITLE11=My Baby Don't Stand No Cheating
TTITLE12=Burden Down
EXTD=
EXTT0=
EXTT1=
EXTT2=
EXTT3=
EXTT4=
EXTT5=
EXTT6=
EXTT7=
EXTT8=
EXTT9=
EXTT10=
EXTT11=
EXTT12=
PLAYORDER=
